<svg xmlns="http://www.w3.org/2000/svg" viewBox="0 0 1600 1067" width="1600" height="1067" role="presentation" preserveAspectRatio="xMidYMid slice">

  <defs>
    <linearGradient id="g-ceil-basementbefore40549" x1="0" y1="0" x2="0" y2="1">
      <stop offset="0" stop-color="#e4e1da"/>
      <stop offset="1" stop-color="#bab6ad"/>
    </linearGradient>
    <linearGradient id="g-back-basementbefore40549" x1="0" y1="0" x2="0.85" y2="1">
      <stop offset="0" stop-color="#cbc7bb"/>
      <stop offset="0.62" stop-color="#c8c4b7"/>
      <stop offset="1" stop-color="#aaa79b"/>
    </linearGradient>
    <linearGradient id="g-side-basementbefore40549" x1="0" y1="0" x2="1" y2="0">
      <stop offset="0" stop-color="#a29f93"/>
      <stop offset="1" stop-color="#b7b4a8"/>
    </linearGradient>
    <linearGradient id="g-floor-basementbefore40549" x1="0.2" y1="0" x2="0.8" y2="1">
      <stop offset="0" stop-color="#958b7d"/>
      <stop offset="0.55" stop-color="#8e8375"/>
      <stop offset="1" stop-color="#6f665b"/>
    </linearGradient>
    <linearGradient id="g-shaft-basementbefore40549" x1="0" y1="0" x2="0.6" y2="1">
      <stop offset="0" stop-color="#eae5da" stop-opacity="0.2"/>
      <stop offset="1" stop-color="#eae5da" stop-opacity="0"/>
    </linearGradient>
    <linearGradient id="g-glass-basementbefore40549" x1="0" y1="0" x2="0.3" y2="1">
      <stop offset="0" stop-color="#f0f2f3"/>
      <stop offset="1" stop-color="#c6cbcd"/>
    </linearGradient>
    <linearGradient id="g-counter-basementbefore40549" x1="0" y1="0" x2="1" y2="0.4">
      <stop offset="0" stop-color="#c4beb3"/>
      <stop offset="1" stop-color="#b9b3a6"/>
    </linearGradient>
    <linearGradient id="g-sky-basementbefore40549" x1="0" y1="0" x2="0" y2="1">
      <stop offset="0" stop-color="#d8dbdd"/>
      <stop offset="1" stop-color="#d7d7d2"/>
    </linearGradient>
    <radialGradient id="g-vig-basementbefore40549" cx="0.5" cy="0.44" r="0.78">
      <stop offset="0.45" stop-color="#000000" stop-opacity="0"/>
      <stop offset="1" stop-color="#100d0a" stop-opacity="0.42"/>
    </radialGradient>
    <filter id="f-grain-basementbefore40549" x="0" y="0" width="100%" height="100%">
      <feTurbulence type="fractalNoise" baseFrequency="0.9" numOctaves="4" stitchTiles="stitch" result="n"/>
      <feColorMatrix type="saturate" values="0" in="n" result="d"/>
      <feComponentTransfer in="d"><feFuncA type="linear" slope="0.17"/></feComponentTransfer>
    </filter>
    <filter id="f-soft-basementbefore40549" x="-30%" y="-30%" width="160%" height="160%">
      <feGaussianBlur stdDeviation="10"/>
    </filter>
  </defs>
  <g><rect width="1600" height="1067" fill="#b4b1a5"/><polygon points="0,0 1600,0 1408,170.72 192,170.72" fill="url(#g-ceil-basementbefore40549)"/><polygon points="0,0 192,170.72 192,640.2 0,1067" fill="url(#g-side-basementbefore40549)"/><polygon points="1600,0 1408,170.72 1408,640.2 1600,1067" fill="url(#g-side-basementbefore40549)" opacity="0.85"/><rect x="192" y="170.72" width="1216" height="469.48" fill="url(#g-back-basementbefore40549)"/><polygon points="0,1067 192,640.2 1408,640.2 1600,1067" fill="url(#g-floor-basementbefore40549)"/><path d="M736 640.2 L-880 1067" stroke="#6f665b" stroke-opacity="0.17" stroke-width="1.5" fill="none"/><path d="M736 640.2 L-712 1067" stroke="#6f665b" stroke-opacity="0.25" stroke-width="1.5" fill="none"/><path d="M736 640.2 L-544 1067" stroke="#6f665b" stroke-opacity="0.31" stroke-width="1.5" fill="none"/><path d="M736 640.2 L-376 1067" stroke="#6f665b" stroke-opacity="0.3" stroke-width="1.5" fill="none"/><path d="M736 640.2 L-208 1067" stroke="#6f665b" stroke-opacity="0.24" stroke-width="1.5" fill="none"/><path d="M736 640.2 L-40 1067" stroke="#6f665b" stroke-opacity="0.28" stroke-width="1.5" fill="none"/><path d="M736 640.2 L128 1067" stroke="#6f665b" stroke-opacity="0.27" stroke-width="1.5" fill="none"/><path d="M736 640.2 L296 1067" stroke="#6f665b" stroke-opacity="0.19" stroke-width="1.5" fill="none"/><path d="M736 640.2 L464 1067" stroke="#6f665b" stroke-opacity="0.32" stroke-width="1.5" fill="none"/><path d="M736 640.2 L632 1067" stroke="#6f665b" stroke-opacity="0.28" stroke-width="1.5" fill="none"/><path d="M736 640.2 L800 1067" stroke="#6f665b" stroke-opacity="0.29" stroke-width="1.5" fill="none"/><path d="M736 640.2 L968 1067" stroke="#6f665b" stroke-opacity="0.32" stroke-width="1.5" fill="none"/><path d="M736 640.2 L1136 1067" stroke="#6f665b" stroke-opacity="0.25" stroke-width="1.5" fill="none"/><path d="M736 640.2 L1304 1067" stroke="#6f665b" stroke-opacity="0.26" stroke-width="1.5" fill="none"/><path d="M736 640.2 L1472 1067" stroke="#6f665b" stroke-opacity="0.22" stroke-width="1.5" fill="none"/><path d="M736 640.2 L1640 1067" stroke="#6f665b" stroke-opacity="0.26" stroke-width="1.5" fill="none"/><path d="M736 640.2 L1808 1067" stroke="#6f665b" stroke-opacity="0.17" stroke-width="1.5" fill="none"/><path d="M736 640.2 L1976 1067" stroke="#6f665b" stroke-opacity="0.2" stroke-width="1.5" fill="none"/><path d="M736 640.2 L2144 1067" stroke="#6f665b" stroke-opacity="0.22" stroke-width="1.5" fill="none"/><path d="M736 640.2 L2312 1067" stroke="#6f665b" stroke-opacity="0.28" stroke-width="1.5" fill="none"/><path d="M736 640.2 L2480 1067" stroke="#6f665b" stroke-opacity="0.18" stroke-width="1.5" fill="none"/><path d="M0 651.42 L1600 651.42" stroke="#6f665b" stroke-opacity="0.13" stroke-width="1.4" fill="none"/><path d="M0 677.92 L1600 677.92" stroke="#6f665b" stroke-opacity="0.13" stroke-width="1.4" fill="none"/><path d="M0 716.9 L1600 716.9" stroke="#6f665b" stroke-opacity="0.13" stroke-width="1.4" fill="none"/><path d="M0 767.09 L1600 767.09" stroke="#6f665b" stroke-opacity="0.13" stroke-width="1.4" fill="none"/><path d="M0 827.71 L1600 827.71" stroke="#6f665b" stroke-opacity="0.13" stroke-width="1.4" fill="none"/><path d="M0 898.18 L1600 898.18" stroke="#6f665b" stroke-opacity="0.13" stroke-width="1.4" fill="none"/><path d="M0 978.06 L1600 978.06" stroke="#6f665b" stroke-opacity="0.13" stroke-width="1.4" fill="none"/><path d="M0 34.14 H1600" stroke="#6f665b" stroke-opacity="0.4" stroke-width="9"/><path d="M0 51.22 H1600" stroke="#6f665b" stroke-opacity="0.4" stroke-width="9"/><path d="M0 68.29 H1600" stroke="#6f665b" stroke-opacity="0.4" stroke-width="9"/><path d="M0 85.36 H1600" stroke="#6f665b" stroke-opacity="0.4" stroke-width="9"/><path d="M0 102.43 H1600" stroke="#6f665b" stroke-opacity="0.4" stroke-width="9"/><path d="M0 119.5 H1600" stroke="#6f665b" stroke-opacity="0.4" stroke-width="9"/><path d="M0 136.58 H1600" stroke="#6f665b" stroke-opacity="0.4" stroke-width="9"/><path d="M0 153.65 H1600" stroke="#6f665b" stroke-opacity="0.4" stroke-width="9"/><rect x="192" y="170.72" width="117.6" height="63.07" fill="none" stroke="#a9a599" stroke-opacity="0.55" stroke-width="1.6"/><rect x="313.6" y="170.72" width="117.6" height="63.07" fill="none" stroke="#a9a599" stroke-opacity="0.55" stroke-width="1.6"/><rect x="435.2" y="170.72" width="117.6" height="63.07" fill="none" stroke="#a9a599" stroke-opacity="0.55" stroke-width="1.6"/><rect x="556.8" y="170.72" width="117.6" height="63.07" fill="none" stroke="#a9a599" stroke-opacity="0.55" stroke-width="1.6"/><rect x="678.4" y="170.72" width="117.6" height="63.07" fill="none" stroke="#a9a599" stroke-opacity="0.55" stroke-width="1.6"/><rect x="800" y="170.72" width="117.6" height="63.07" fill="none" stroke="#a9a599" stroke-opacity="0.55" stroke-width="1.6"/><rect x="921.6" y="170.72" width="117.6" height="63.07" fill="none" stroke="#a9a599" stroke-opacity="0.55" stroke-width="1.6"/><rect x="1043.2" y="170.72" width="117.6" height="63.07" fill="none" stroke="#a9a599" stroke-opacity="0.55" stroke-width="1.6"/><rect x="1164.8" y="170.72" width="117.6" height="63.07" fill="none" stroke="#a9a599" stroke-opacity="0.55" stroke-width="1.6"/><rect x="1286.4" y="170.72" width="117.6" height="63.07" fill="none" stroke="#a9a599" stroke-opacity="0.55" stroke-width="1.6"/><rect x="206" y="237.79" width="117.6" height="63.07" fill="none" stroke="#a9a599" stroke-opacity="0.55" stroke-width="1.6"/><rect x="327.6" y="237.79" width="117.6" height="63.07" fill="none" stroke="#a9a599" stroke-opacity="0.55" stroke-width="1.6"/><rect x="449.2" y="237.79" width="117.6" height="63.07" fill="none" stroke="#a9a599" stroke-opacity="0.55" stroke-width="1.6"/><rect x="570.8" y="237.79" width="117.6" height="63.07" fill="none" stroke="#a9a599" stroke-opacity="0.55" stroke-width="1.6"/><rect x="692.4" y="237.79" width="117.6" height="63.07" fill="none" stroke="#a9a599" stroke-opacity="0.55" stroke-width="1.6"/><rect x="814" y="237.79" width="117.6" height="63.07" fill="none" stroke="#a9a599" stroke-opacity="0.55" stroke-width="1.6"/><rect x="935.6" y="237.79" width="117.6" height="63.07" fill="none" stroke="#a9a599" stroke-opacity="0.55" stroke-width="1.6"/><rect x="1057.2" y="237.79" width="117.6" height="63.07" fill="none" stroke="#a9a599" stroke-opacity="0.55" stroke-width="1.6"/><rect x="1178.8" y="237.79" width="117.6" height="63.07" fill="none" stroke="#a9a599" stroke-opacity="0.55" stroke-width="1.6"/><rect x="1300.4" y="237.79" width="117.6" height="63.07" fill="none" stroke="#a9a599" stroke-opacity="0.55" stroke-width="1.6"/><rect x="192" y="304.86" width="117.6" height="63.07" fill="none" stroke="#a9a599" stroke-opacity="0.55" stroke-width="1.6"/><rect x="313.6" y="304.86" width="117.6" height="63.07" fill="none" stroke="#a9a599" stroke-opacity="0.55" stroke-width="1.6"/><rect x="435.2" y="304.86" width="117.6" height="63.07" fill="none" stroke="#a9a599" stroke-opacity="0.55" stroke-width="1.6"/><rect x="556.8" y="304.86" width="117.6" height="63.07" fill="none" stroke="#a9a599" stroke-opacity="0.55" stroke-width="1.6"/><rect x="678.4" y="304.86" width="117.6" height="63.07" fill="none" stroke="#a9a599" stroke-opacity="0.55" stroke-width="1.6"/><rect x="800" y="304.86" width="117.6" height="63.07" fill="none" stroke="#a9a599" stroke-opacity="0.55" stroke-width="1.6"/><rect x="921.6" y="304.86" width="117.6" height="63.07" fill="none" stroke="#a9a599" stroke-opacity="0.55" stroke-width="1.6"/><rect x="1043.2" y="304.86" width="117.6" height="63.07" fill="none" stroke="#a9a599" stroke-opacity="0.55" stroke-width="1.6"/><rect x="1164.8" y="304.86" width="117.6" height="63.07" fill="none" stroke="#a9a599" stroke-opacity="0.55" stroke-width="1.6"/><rect x="1286.4" y="304.86" width="117.6" height="63.07" fill="none" stroke="#a9a599" stroke-opacity="0.55" stroke-width="1.6"/><rect x="206" y="371.93" width="117.6" height="63.07" fill="none" stroke="#a9a599" stroke-opacity="0.55" stroke-width="1.6"/><rect x="327.6" y="371.93" width="117.6" height="63.07" fill="none" stroke="#a9a599" stroke-opacity="0.55" stroke-width="1.6"/><rect x="449.2" y="371.93" width="117.6" height="63.07" fill="none" stroke="#a9a599" stroke-opacity="0.55" stroke-width="1.6"/><rect x="570.8" y="371.93" width="117.6" height="63.07" fill="none" stroke="#a9a599" stroke-opacity="0.55" stroke-width="1.6"/><rect x="692.4" y="371.93" width="117.6" height="63.07" fill="none" stroke="#a9a599" stroke-opacity="0.55" stroke-width="1.6"/><rect x="814" y="371.93" width="117.6" height="63.07" fill="none" stroke="#a9a599" stroke-opacity="0.55" stroke-width="1.6"/><rect x="935.6" y="371.93" width="117.6" height="63.07" fill="none" stroke="#a9a599" stroke-opacity="0.55" stroke-width="1.6"/><rect x="1057.2" y="371.93" width="117.6" height="63.07" fill="none" stroke="#a9a599" stroke-opacity="0.55" stroke-width="1.6"/><rect x="1178.8" y="371.93" width="117.6" height="63.07" fill="none" stroke="#a9a599" stroke-opacity="0.55" stroke-width="1.6"/><rect x="1300.4" y="371.93" width="117.6" height="63.07" fill="none" stroke="#a9a599" stroke-opacity="0.55" stroke-width="1.6"/><rect x="192" y="438.99" width="117.6" height="63.07" fill="none" stroke="#a9a599" stroke-opacity="0.55" stroke-width="1.6"/><rect x="313.6" y="438.99" width="117.6" height="63.07" fill="none" stroke="#a9a599" stroke-opacity="0.55" stroke-width="1.6"/><rect x="435.2" y="438.99" width="117.6" height="63.07" fill="none" stroke="#a9a599" stroke-opacity="0.55" stroke-width="1.6"/><rect x="556.8" y="438.99" width="117.6" height="63.07" fill="none" stroke="#a9a599" stroke-opacity="0.55" stroke-width="1.6"/><rect x="678.4" y="438.99" width="117.6" height="63.07" fill="none" stroke="#a9a599" stroke-opacity="0.55" stroke-width="1.6"/><rect x="800" y="438.99" width="117.6" height="63.07" fill="none" stroke="#a9a599" stroke-opacity="0.55" stroke-width="1.6"/><rect x="921.6" y="438.99" width="117.6" height="63.07" fill="none" stroke="#a9a599" stroke-opacity="0.55" stroke-width="1.6"/><rect x="1043.2" y="438.99" width="117.6" height="63.07" fill="none" stroke="#a9a599" stroke-opacity="0.55" stroke-width="1.6"/><rect x="1164.8" y="438.99" width="117.6" height="63.07" fill="none" stroke="#a9a599" stroke-opacity="0.55" stroke-width="1.6"/><rect x="1286.4" y="438.99" width="117.6" height="63.07" fill="none" stroke="#a9a599" stroke-opacity="0.55" stroke-width="1.6"/><rect x="206" y="506.06" width="117.6" height="63.07" fill="none" stroke="#a9a599" stroke-opacity="0.55" stroke-width="1.6"/><rect x="327.6" y="506.06" width="117.6" height="63.07" fill="none" stroke="#a9a599" stroke-opacity="0.55" stroke-width="1.6"/><rect x="449.2" y="506.06" width="117.6" height="63.07" fill="none" stroke="#a9a599" stroke-opacity="0.55" stroke-width="1.6"/><rect x="570.8" y="506.06" width="117.6" height="63.07" fill="none" stroke="#a9a599" stroke-opacity="0.55" stroke-width="1.6"/><rect x="692.4" y="506.06" width="117.6" height="63.07" fill="none" stroke="#a9a599" stroke-opacity="0.55" stroke-width="1.6"/><rect x="814" y="506.06" width="117.6" height="63.07" fill="none" stroke="#a9a599" stroke-opacity="0.55" stroke-width="1.6"/><rect x="935.6" y="506.06" width="117.6" height="63.07" fill="none" stroke="#a9a599" stroke-opacity="0.55" stroke-width="1.6"/><rect x="1057.2" y="506.06" width="117.6" height="63.07" fill="none" stroke="#a9a599" stroke-opacity="0.55" stroke-width="1.6"/><rect x="1178.8" y="506.06" width="117.6" height="63.07" fill="none" stroke="#a9a599" stroke-opacity="0.55" stroke-width="1.6"/><rect x="1300.4" y="506.06" width="117.6" height="63.07" fill="none" stroke="#a9a599" stroke-opacity="0.55" stroke-width="1.6"/><rect x="192" y="573.13" width="117.6" height="63.07" fill="none" stroke="#a9a599" stroke-opacity="0.55" stroke-width="1.6"/><rect x="313.6" y="573.13" width="117.6" height="63.07" fill="none" stroke="#a9a599" stroke-opacity="0.55" stroke-width="1.6"/><rect x="435.2" y="573.13" width="117.6" height="63.07" fill="none" stroke="#a9a599" stroke-opacity="0.55" stroke-width="1.6"/><rect x="556.8" y="573.13" width="117.6" height="63.07" fill="none" stroke="#a9a599" stroke-opacity="0.55" stroke-width="1.6"/><rect x="678.4" y="573.13" width="117.6" height="63.07" fill="none" stroke="#a9a599" stroke-opacity="0.55" stroke-width="1.6"/><rect x="800" y="573.13" width="117.6" height="63.07" fill="none" stroke="#a9a599" stroke-opacity="0.55" stroke-width="1.6"/><rect x="921.6" y="573.13" width="117.6" height="63.07" fill="none" stroke="#a9a599" stroke-opacity="0.55" stroke-width="1.6"/><rect x="1043.2" y="573.13" width="117.6" height="63.07" fill="none" stroke="#a9a599" stroke-opacity="0.55" stroke-width="1.6"/><rect x="1164.8" y="573.13" width="117.6" height="63.07" fill="none" stroke="#a9a599" stroke-opacity="0.55" stroke-width="1.6"/><rect x="1286.4" y="573.13" width="117.6" height="63.07" fill="none" stroke="#a9a599" stroke-opacity="0.55" stroke-width="1.6"/><path d="M800 51.22 V320.1" stroke="#9a978e" stroke-width="2"/><circle cx="800" cy="341.44" r="14" fill="#eae5da" opacity="0.8"/><rect x="992" y="469.48" width="224" height="192.06" fill="#9c8d73" opacity="0.7"/><g opacity="0.5"><path d="M1242.54 158.98 L1239.6 166.99 L1240.78 171.15 L1229.59 186.47 L1244 189.85 L1253.04 197.17 L1252.93 220.45" stroke="#5f584e" stroke-opacity="0.34" stroke-width="1.87" fill="none" stroke-linecap="round"/><path d="M1095.45 68.47 L1079.19 83 L1096.05 83.04 L1112.01 88.46 L1119.42 112.68 L1144.43 131.82 L1162.07 157.8" stroke="#5f584e" stroke-opacity="0.34" stroke-width="0.92" fill="none" stroke-linecap="round"/><path d="M303.7 3.1 L307.59 5.65 L308.58 13.73 L327.87 51.44 L343.93 73.48 L356.98 107.36 L351.09 113.29" stroke="#5f584e" stroke-opacity="0.34" stroke-width="1.6" fill="none" stroke-linecap="round"/><path d="M1125.84 383.49 L1141.12 403.83 L1131.61 408.39 L1127.46 438.08 L1151.35 457.3 L1164.55 472.06 L1185.42 478.05" stroke="#5f584e" stroke-opacity="0.34" stroke-width="1.01" fill="none" stroke-linecap="round"/><path d="M425 375.07 L440.43 408.32 L419.89 424.93 L426.29 438.4 L441.92 472.32 L447.75 494.83 L455.9 511.12" stroke="#5f584e" stroke-opacity="0.34" stroke-width="1.72" fill="none" stroke-linecap="round"/><path d="M1048.05 266.21 L1071.88 279.41 L1084.87 298.93 L1094.55 317.12 L1086.71 326.9 L1087.9 327.23 L1086.68 336.07" stroke="#5f584e" stroke-opacity="0.34" stroke-width="1.05" fill="none" stroke-linecap="round"/><ellipse cx="35.67" cy="438.7" rx="61.01" ry="86.02" fill="#6b6155" opacity="0.13"/><ellipse cx="1060.58" cy="355.36" rx="132.06" ry="65.84" fill="#6b6155" opacity="0.13"/><ellipse cx="383.9" cy="268.87" rx="129.7" ry="75.57" fill="#6b6155" opacity="0.13"/><ellipse cx="1326.77" cy="1.21" rx="138.24" ry="40.68" fill="#6b6155" opacity="0.13"/></g></g>
  <rect width="1600" height="1067" filter="url(#f-grain-basementbefore40549)" opacity="0.55" style="mix-blend-mode:multiply"/>
  <rect width="1600" height="1067" fill="url(#g-vig-basementbefore40549)"/>
</svg>
