<svg xmlns="http://www.w3.org/2000/svg" viewBox="0 0 1600 1067" width="1600" height="1067" role="presentation" preserveAspectRatio="xMidYMid slice">

  <defs>
    <linearGradient id="g-ceil-kitchenafter3548" x1="0" y1="0" x2="0" y2="1">
      <stop offset="0" stop-color="#fbf9f6"/>
      <stop offset="1" stop-color="#e3dbd1"/>
    </linearGradient>
    <linearGradient id="g-back-kitchenafter3548" x1="0" y1="0" x2="0.85" y2="1">
      <stop offset="0" stop-color="#f5eee1"/>
      <stop offset="0.62" stop-color="#efe8de"/>
      <stop offset="1" stop-color="#dcd2c5"/>
    </linearGradient>
    <linearGradient id="g-side-kitchenafter3548" x1="0" y1="0" x2="1" y2="0">
      <stop offset="0" stop-color="#d7ccbe"/>
      <stop offset="1" stop-color="#eae1d4"/>
    </linearGradient>
    <linearGradient id="g-floor-kitchenafter3548" x1="0.2" y1="0" x2="0.8" y2="1">
      <stop offset="0" stop-color="#d1b28e"/>
      <stop offset="0.55" stop-color="#b98f60"/>
      <stop offset="1" stop-color="#966c43"/>
    </linearGradient>
    <linearGradient id="g-shaft-kitchenafter3548" x1="0" y1="0" x2="0.6" y2="1">
      <stop offset="0" stop-color="#fff6e6" stop-opacity="0.52"/>
      <stop offset="1" stop-color="#fff6e6" stop-opacity="0"/>
    </linearGradient>
    <linearGradient id="g-glass-kitchenafter3548" x1="0" y1="0" x2="0.3" y2="1">
      <stop offset="0" stop-color="#fcfdfe"/>
      <stop offset="1" stop-color="#e3eaef"/>
    </linearGradient>
    <linearGradient id="g-counter-kitchenafter3548" x1="0" y1="0" x2="1" y2="0.4">
      <stop offset="0" stop-color="#f4f2ef"/>
      <stop offset="1" stop-color="#e9e5df"/>
    </linearGradient>
    <linearGradient id="g-sky-kitchenafter3548" x1="0" y1="0" x2="0" y2="1">
      <stop offset="0" stop-color="#eaeff3"/>
      <stop offset="1" stop-color="#efefe9"/>
    </linearGradient>
    <radialGradient id="g-vig-kitchenafter3548" cx="0.5" cy="0.44" r="0.78">
      <stop offset="0.45" stop-color="#000000" stop-opacity="0"/>
      <stop offset="1" stop-color="#100d0a" stop-opacity="0.3"/>
    </radialGradient>
    <filter id="f-grain-kitchenafter3548" x="0" y="0" width="100%" height="100%">
      <feTurbulence type="fractalNoise" baseFrequency="0.9" numOctaves="4" stitchTiles="stitch" result="n"/>
      <feColorMatrix type="saturate" values="0" in="n" result="d"/>
      <feComponentTransfer in="d"><feFuncA type="linear" slope="0.11"/></feComponentTransfer>
    </filter>
    <filter id="f-soft-kitchenafter3548" x="-30%" y="-30%" width="160%" height="160%">
      <feGaussianBlur stdDeviation="16"/>
    </filter>
  </defs>
  <g><rect width="1600" height="1067" fill="#e2d9cd"/><polygon points="0,0 1600,0 1344,149.38 320,149.38" fill="url(#g-ceil-kitchenafter3548)"/><polygon points="0,0 320,149.38 320,554.84 0,1067" fill="url(#g-side-kitchenafter3548)"/><polygon points="1600,0 1344,149.38 1344,554.84 1600,1067" fill="url(#g-side-kitchenafter3548)" opacity="0.82"/><rect x="320" y="149.38" width="1024" height="405.46" fill="url(#g-back-kitchenafter3548)"/><polygon points="0,1067 320,554.84 1344,554.84 1600,1067" fill="url(#g-floor-kitchenafter3548)"/><path d="M800 554.84 L-880 1067" stroke="#966c43" stroke-opacity="0.19" stroke-width="1.5" fill="none"/><path d="M800 554.84 L-727.27 1067" stroke="#966c43" stroke-opacity="0.19" stroke-width="1.5" fill="none"/><path d="M800 554.84 L-574.55 1067" stroke="#966c43" stroke-opacity="0.27" stroke-width="1.5" fill="none"/><path d="M800 554.84 L-421.82 1067" stroke="#966c43" stroke-opacity="0.2" stroke-width="1.5" fill="none"/><path d="M800 554.84 L-269.09 1067" stroke="#966c43" stroke-opacity="0.16" stroke-width="1.5" fill="none"/><path d="M800 554.84 L-116.36 1067" stroke="#966c43" stroke-opacity="0.3" stroke-width="1.5" fill="none"/><path d="M800 554.84 L36.36 1067" stroke="#966c43" stroke-opacity="0.19" stroke-width="1.5" fill="none"/><path d="M800 554.84 L189.09 1067" stroke="#966c43" stroke-opacity="0.3" stroke-width="1.5" fill="none"/><path d="M800 554.84 L341.82 1067" stroke="#966c43" stroke-opacity="0.26" stroke-width="1.5" fill="none"/><path d="M800 554.84 L494.55 1067" stroke="#966c43" stroke-opacity="0.22" stroke-width="1.5" fill="none"/><path d="M800 554.84 L647.27 1067" stroke="#966c43" stroke-opacity="0.26" stroke-width="1.5" fill="none"/><path d="M800 554.84 L800 1067" stroke="#966c43" stroke-opacity="0.22" stroke-width="1.5" fill="none"/><path d="M800 554.84 L952.73 1067" stroke="#966c43" stroke-opacity="0.18" stroke-width="1.5" fill="none"/><path d="M800 554.84 L1105.45 1067" stroke="#966c43" stroke-opacity="0.26" stroke-width="1.5" fill="none"/><path d="M800 554.84 L1258.18 1067" stroke="#966c43" stroke-opacity="0.21" stroke-width="1.5" fill="none"/><path d="M800 554.84 L1410.91 1067" stroke="#966c43" stroke-opacity="0.27" stroke-width="1.5" fill="none"/><path d="M800 554.84 L1563.64 1067" stroke="#966c43" stroke-opacity="0.24" stroke-width="1.5" fill="none"/><path d="M800 554.84 L1716.36 1067" stroke="#966c43" stroke-opacity="0.29" stroke-width="1.5" fill="none"/><path d="M800 554.84 L1869.09 1067" stroke="#966c43" stroke-opacity="0.29" stroke-width="1.5" fill="none"/><path d="M800 554.84 L2021.82 1067" stroke="#966c43" stroke-opacity="0.26" stroke-width="1.5" fill="none"/><path d="M800 554.84 L2174.55 1067" stroke="#966c43" stroke-opacity="0.22" stroke-width="1.5" fill="none"/><path d="M800 554.84 L2327.27 1067" stroke="#966c43" stroke-opacity="0.25" stroke-width="1.5" fill="none"/><path d="M800 554.84 L2480 1067" stroke="#966c43" stroke-opacity="0.19" stroke-width="1.5" fill="none"/><path d="M0 568.3 L1600 568.3" stroke="#966c43" stroke-opacity="0.13" stroke-width="1.4" fill="none"/><path d="M0 600.11 L1600 600.11" stroke="#966c43" stroke-opacity="0.13" stroke-width="1.4" fill="none"/><path d="M0 646.88 L1600 646.88" stroke="#966c43" stroke-opacity="0.13" stroke-width="1.4" fill="none"/><path d="M0 707.11 L1600 707.11" stroke="#966c43" stroke-opacity="0.13" stroke-width="1.4" fill="none"/><path d="M0 779.85 L1600 779.85" stroke="#966c43" stroke-opacity="0.13" stroke-width="1.4" fill="none"/><path d="M0 864.41 L1600 864.41" stroke="#966c43" stroke-opacity="0.13" stroke-width="1.4" fill="none"/><path d="M0 960.27 L1600 960.27" stroke="#966c43" stroke-opacity="0.13" stroke-width="1.4" fill="none"/><rect x="381.44" y="198.04" width="245.76" height="170.29" fill="url(#g-glass-kitchenafter3548)"/><rect x="381.44" y="198.04" width="245.76" height="170.29" fill="none" stroke="#faf7f2" stroke-width="7"/><path d="M504.32 198.04 V368.33" stroke="#faf7f2" stroke-width="5"/><polygon points="381.44,368.33 627.2,368.33 1248,1067 64,1067" fill="url(#g-shaft-kitchenafter3548)"/><rect x="709.12" y="311.56" width="614.4" height="105.42" fill="#e8e2d8"/><path d="M709.12 311.56 V416.98" stroke="#cec5b8" stroke-opacity="0.55" stroke-width="1.4"/><path d="M739.12 311.56 V416.98" stroke="#cec5b8" stroke-opacity="0.55" stroke-width="1.4"/><path d="M769.12 311.56 V416.98" stroke="#cec5b8" stroke-opacity="0.55" stroke-width="1.4"/><path d="M799.12 311.56 V416.98" stroke="#cec5b8" stroke-opacity="0.55" stroke-width="1.4"/><path d="M829.12 311.56 V416.98" stroke="#cec5b8" stroke-opacity="0.55" stroke-width="1.4"/><path d="M859.12 311.56 V416.98" stroke="#cec5b8" stroke-opacity="0.55" stroke-width="1.4"/><path d="M889.12 311.56 V416.98" stroke="#cec5b8" stroke-opacity="0.55" stroke-width="1.4"/><path d="M919.12 311.56 V416.98" stroke="#cec5b8" stroke-opacity="0.55" stroke-width="1.4"/><path d="M949.12 311.56 V416.98" stroke="#cec5b8" stroke-opacity="0.55" stroke-width="1.4"/><path d="M979.12 311.56 V416.98" stroke="#cec5b8" stroke-opacity="0.55" stroke-width="1.4"/><path d="M1009.12 311.56 V416.98" stroke="#cec5b8" stroke-opacity="0.55" stroke-width="1.4"/><path d="M1039.12 311.56 V416.98" stroke="#cec5b8" stroke-opacity="0.55" stroke-width="1.4"/><path d="M1069.12 311.56 V416.98" stroke="#cec5b8" stroke-opacity="0.55" stroke-width="1.4"/><path d="M1099.12 311.56 V416.98" stroke="#cec5b8" stroke-opacity="0.55" stroke-width="1.4"/><path d="M1129.12 311.56 V416.98" stroke="#cec5b8" stroke-opacity="0.55" stroke-width="1.4"/><path d="M1159.12 311.56 V416.98" stroke="#cec5b8" stroke-opacity="0.55" stroke-width="1.4"/><path d="M1189.12 311.56 V416.98" stroke="#cec5b8" stroke-opacity="0.55" stroke-width="1.4"/><path d="M1219.12 311.56 V416.98" stroke="#cec5b8" stroke-opacity="0.55" stroke-width="1.4"/><path d="M1249.12 311.56 V416.98" stroke="#cec5b8" stroke-opacity="0.55" stroke-width="1.4"/><path d="M1279.12 311.56 V416.98" stroke="#cec5b8" stroke-opacity="0.55" stroke-width="1.4"/><path d="M1309.12 311.56 V416.98" stroke="#cec5b8" stroke-opacity="0.55" stroke-width="1.4"/><path d="M709.12 311.56 H1323.52" stroke="#cec5b8" stroke-opacity="0.55" stroke-width="1.4"/><path d="M709.12 341.56 H1323.52" stroke="#cec5b8" stroke-opacity="0.55" stroke-width="1.4"/><path d="M709.12 371.56 H1323.52" stroke="#cec5b8" stroke-opacity="0.55" stroke-width="1.4"/><path d="M709.12 401.56 H1323.52" stroke="#cec5b8" stroke-opacity="0.55" stroke-width="1.4"/><rect x="709.12" y="173.71" width="614.4" height="129.75" fill="#2b2f31"/><rect x="714.12" y="178.71" width="143.6" height="119.75" fill="none" stroke="#3a3f42" stroke-width="2"/><rect x="783.92" y="194.47" width="4" height="31.14" rx="2" fill="#d8a877"/><rect x="867.72" y="178.71" width="143.6" height="119.75" fill="none" stroke="#3a3f42" stroke-width="2"/><rect x="937.52" y="194.47" width="4" height="31.14" rx="2" fill="#d8a877"/><rect x="1021.32" y="178.71" width="143.6" height="119.75" fill="none" stroke="#3a3f42" stroke-width="2"/><rect x="1091.12" y="194.47" width="4" height="31.14" rx="2" fill="#d8a877"/><rect x="1174.92" y="178.71" width="143.6" height="119.75" fill="none" stroke="#3a3f42" stroke-width="2"/><rect x="1244.72" y="194.47" width="4" height="31.14" rx="2" fill="#d8a877"/><rect x="320" y="405.46" width="1024" height="128.04" fill="#2b2f31"/><rect x="325" y="410.46" width="160.67" height="118.04" fill="none" stroke="#3a3f42" stroke-width="2"/><rect x="403.33" y="425.95" width="4" height="30.73" rx="2" fill="#d8a877"/><rect x="495.67" y="410.46" width="160.67" height="118.04" fill="none" stroke="#3a3f42" stroke-width="2"/><rect x="574" y="425.95" width="4" height="30.73" rx="2" fill="#d8a877"/><rect x="666.33" y="410.46" width="160.67" height="118.04" fill="none" stroke="#3a3f42" stroke-width="2"/><rect x="744.67" y="425.95" width="4" height="30.73" rx="2" fill="#d8a877"/><rect x="837" y="410.46" width="160.67" height="118.04" fill="none" stroke="#3a3f42" stroke-width="2"/><rect x="915.33" y="425.95" width="4" height="30.73" rx="2" fill="#d8a877"/><rect x="1007.67" y="410.46" width="160.67" height="118.04" fill="none" stroke="#3a3f42" stroke-width="2"/><rect x="1086" y="425.95" width="4" height="30.73" rx="2" fill="#d8a877"/><rect x="1178.33" y="410.46" width="160.67" height="118.04" fill="none" stroke="#3a3f42" stroke-width="2"/><rect x="1256.67" y="425.95" width="4" height="30.73" rx="2" fill="#d8a877"/><rect x="314" y="389.46" width="1036" height="23.47" fill="url(#g-counter-kitchenafter3548)"/><rect x="256" y="704.22" width="736" height="213.4" fill="#2b2f31"/><rect x="261" y="709.22" width="235.33" height="203.4" fill="none" stroke="#3a3f42" stroke-width="2"/><rect x="376.67" y="738.36" width="4" height="51.22" rx="2" fill="#d8a877"/><rect x="506.33" y="709.22" width="235.33" height="203.4" fill="none" stroke="#3a3f42" stroke-width="2"/><rect x="622" y="738.36" width="4" height="51.22" rx="2" fill="#d8a877"/><rect x="751.67" y="709.22" width="235.33" height="203.4" fill="none" stroke="#3a3f42" stroke-width="2"/><rect x="867.33" y="738.36" width="4" height="51.22" rx="2" fill="#d8a877"/><rect x="242" y="674.34" width="764" height="34.14" rx="2" fill="url(#g-counter-kitchenafter3548)"/><rect x="242" y="706.35" width="764" height="4" fill="#cfc8bd"/><path d="M476.8 106.7 V362.78" stroke="#b8895c" stroke-width="2.5"/><path d="M446.8 426.8 L506.8 426.8 L493.8 362.78 L459.8 362.78 Z" fill="#d8a877"/><ellipse cx="476.8" cy="458.81" rx="46" ry="26" fill="#fff6e6" opacity="0.5" filter="url(#f-soft-kitchenafter3548)"/><path d="M785.92 106.7 V362.78" stroke="#b8895c" stroke-width="2.5"/><path d="M755.92 426.8 L815.92 426.8 L802.92 362.78 L768.92 362.78 Z" fill="#d8a877"/><ellipse cx="785.92" cy="458.81" rx="46" ry="26" fill="#fff6e6" opacity="0.5" filter="url(#f-soft-kitchenafter3548)"/><polygon points="960,159.38 1184,159.38 1136,352.11 1008,352.11" fill="#d8a877" opacity="0.9"/><rect x="384" y="638.07" width="26" height="36.28" rx="3" fill="#5d7360"/><circle cx="404.8" cy="627.4" r="18" fill="#5d7360" opacity="0.85"/></g>
  <rect width="1600" height="1067" filter="url(#f-grain-kitchenafter3548)" opacity="0.55" style="mix-blend-mode:multiply"/>
  <rect width="1600" height="1067" fill="url(#g-vig-kitchenafter3548)"/>
</svg>
