<svg xmlns="http://www.w3.org/2000/svg" viewBox="0 0 1600 1067" width="1600" height="1067" role="presentation" preserveAspectRatio="xMidYMid slice">

  <defs>
    <linearGradient id="g-ceil-bathroomafter87276" x1="0" y1="0" x2="0" y2="1">
      <stop offset="0" stop-color="#fbf9f6"/>
      <stop offset="1" stop-color="#e3dbd1"/>
    </linearGradient>
    <linearGradient id="g-back-bathroomafter87276" x1="0" y1="0" x2="0.85" y2="1">
      <stop offset="0" stop-color="#f5eee1"/>
      <stop offset="0.62" stop-color="#efe8de"/>
      <stop offset="1" stop-color="#dcd2c5"/>
    </linearGradient>
    <linearGradient id="g-side-bathroomafter87276" x1="0" y1="0" x2="1" y2="0">
      <stop offset="0" stop-color="#d7ccbe"/>
      <stop offset="1" stop-color="#eae1d4"/>
    </linearGradient>
    <linearGradient id="g-floor-bathroomafter87276" x1="0.2" y1="0" x2="0.8" y2="1">
      <stop offset="0" stop-color="#d1b28e"/>
      <stop offset="0.55" stop-color="#b98f60"/>
      <stop offset="1" stop-color="#966c43"/>
    </linearGradient>
    <linearGradient id="g-shaft-bathroomafter87276" x1="0" y1="0" x2="0.6" y2="1">
      <stop offset="0" stop-color="#fff6e6" stop-opacity="0.52"/>
      <stop offset="1" stop-color="#fff6e6" stop-opacity="0"/>
    </linearGradient>
    <linearGradient id="g-glass-bathroomafter87276" x1="0" y1="0" x2="0.3" y2="1">
      <stop offset="0" stop-color="#fcfdfe"/>
      <stop offset="1" stop-color="#e3eaef"/>
    </linearGradient>
    <linearGradient id="g-counter-bathroomafter87276" x1="0" y1="0" x2="1" y2="0.4">
      <stop offset="0" stop-color="#f4f2ef"/>
      <stop offset="1" stop-color="#e9e5df"/>
    </linearGradient>
    <linearGradient id="g-sky-bathroomafter87276" x1="0" y1="0" x2="0" y2="1">
      <stop offset="0" stop-color="#eaeff3"/>
      <stop offset="1" stop-color="#efefe9"/>
    </linearGradient>
    <radialGradient id="g-vig-bathroomafter87276" cx="0.5" cy="0.44" r="0.78">
      <stop offset="0.45" stop-color="#000000" stop-opacity="0"/>
      <stop offset="1" stop-color="#100d0a" stop-opacity="0.3"/>
    </radialGradient>
    <filter id="f-grain-bathroomafter87276" x="0" y="0" width="100%" height="100%">
      <feTurbulence type="fractalNoise" baseFrequency="0.9" numOctaves="4" stitchTiles="stitch" result="n"/>
      <feColorMatrix type="saturate" values="0" in="n" result="d"/>
      <feComponentTransfer in="d"><feFuncA type="linear" slope="0.11"/></feComponentTransfer>
    </filter>
    <filter id="f-soft-bathroomafter87276" x="-30%" y="-30%" width="160%" height="160%">
      <feGaussianBlur stdDeviation="16"/>
    </filter>
  </defs>
  <g><rect width="1600" height="1067" fill="#e2d9cd"/><polygon points="0,0 1600,0 1408,106.7 256,106.7" fill="url(#g-ceil-bathroomafter87276)"/><polygon points="0,0 256,106.7 256,661.54 0,1067" fill="url(#g-side-bathroomafter87276)"/><rect x="256" y="106.7" width="1152" height="554.84" fill="url(#g-back-bathroomafter87276)"/><polygon points="1600,0 1408,106.7 1408,661.54 1600,1067" fill="url(#g-side-bathroomafter87276)" opacity="0.8"/><polygon points="0,1067 256,661.54 1408,661.54 1600,1067" fill="url(#g-floor-bathroomafter87276)"/><rect x="0" y="661.54" width="1600" height="405.46" fill="#e8e2d8"/><path d="M0 661.54 V1067" stroke="#cec5b8" stroke-opacity="0.32" stroke-width="1.4"/><path d="M54 661.54 V1067" stroke="#cec5b8" stroke-opacity="0.32" stroke-width="1.4"/><path d="M108 661.54 V1067" stroke="#cec5b8" stroke-opacity="0.32" stroke-width="1.4"/><path d="M162 661.54 V1067" stroke="#cec5b8" stroke-opacity="0.32" stroke-width="1.4"/><path d="M216 661.54 V1067" stroke="#cec5b8" stroke-opacity="0.32" stroke-width="1.4"/><path d="M270 661.54 V1067" stroke="#cec5b8" stroke-opacity="0.32" stroke-width="1.4"/><path d="M324 661.54 V1067" stroke="#cec5b8" stroke-opacity="0.32" stroke-width="1.4"/><path d="M378 661.54 V1067" stroke="#cec5b8" stroke-opacity="0.32" stroke-width="1.4"/><path d="M432 661.54 V1067" stroke="#cec5b8" stroke-opacity="0.32" stroke-width="1.4"/><path d="M486 661.54 V1067" stroke="#cec5b8" stroke-opacity="0.32" stroke-width="1.4"/><path d="M540 661.54 V1067" stroke="#cec5b8" stroke-opacity="0.32" stroke-width="1.4"/><path d="M594 661.54 V1067" stroke="#cec5b8" stroke-opacity="0.32" stroke-width="1.4"/><path d="M648 661.54 V1067" stroke="#cec5b8" stroke-opacity="0.32" stroke-width="1.4"/><path d="M702 661.54 V1067" stroke="#cec5b8" stroke-opacity="0.32" stroke-width="1.4"/><path d="M756 661.54 V1067" stroke="#cec5b8" stroke-opacity="0.32" stroke-width="1.4"/><path d="M810 661.54 V1067" stroke="#cec5b8" stroke-opacity="0.32" stroke-width="1.4"/><path d="M864 661.54 V1067" stroke="#cec5b8" stroke-opacity="0.32" stroke-width="1.4"/><path d="M918 661.54 V1067" stroke="#cec5b8" stroke-opacity="0.32" stroke-width="1.4"/><path d="M972 661.54 V1067" stroke="#cec5b8" stroke-opacity="0.32" stroke-width="1.4"/><path d="M1026 661.54 V1067" stroke="#cec5b8" stroke-opacity="0.32" stroke-width="1.4"/><path d="M1080 661.54 V1067" stroke="#cec5b8" stroke-opacity="0.32" stroke-width="1.4"/><path d="M1134 661.54 V1067" stroke="#cec5b8" stroke-opacity="0.32" stroke-width="1.4"/><path d="M1188 661.54 V1067" stroke="#cec5b8" stroke-opacity="0.32" stroke-width="1.4"/><path d="M1242 661.54 V1067" stroke="#cec5b8" stroke-opacity="0.32" stroke-width="1.4"/><path d="M1296 661.54 V1067" stroke="#cec5b8" stroke-opacity="0.32" stroke-width="1.4"/><path d="M1350 661.54 V1067" stroke="#cec5b8" stroke-opacity="0.32" stroke-width="1.4"/><path d="M1404 661.54 V1067" stroke="#cec5b8" stroke-opacity="0.32" stroke-width="1.4"/><path d="M1458 661.54 V1067" stroke="#cec5b8" stroke-opacity="0.32" stroke-width="1.4"/><path d="M1512 661.54 V1067" stroke="#cec5b8" stroke-opacity="0.32" stroke-width="1.4"/><path d="M1566 661.54 V1067" stroke="#cec5b8" stroke-opacity="0.32" stroke-width="1.4"/><path d="M0 661.54 H1600" stroke="#cec5b8" stroke-opacity="0.32" stroke-width="1.4"/><path d="M0 715.54 H1600" stroke="#cec5b8" stroke-opacity="0.32" stroke-width="1.4"/><path d="M0 769.54 H1600" stroke="#cec5b8" stroke-opacity="0.32" stroke-width="1.4"/><path d="M0 823.54 H1600" stroke="#cec5b8" stroke-opacity="0.32" stroke-width="1.4"/><path d="M0 877.54 H1600" stroke="#cec5b8" stroke-opacity="0.32" stroke-width="1.4"/><path d="M0 931.54 H1600" stroke="#cec5b8" stroke-opacity="0.32" stroke-width="1.4"/><path d="M0 985.54 H1600" stroke="#cec5b8" stroke-opacity="0.32" stroke-width="1.4"/><path d="M0 1039.54 H1600" stroke="#cec5b8" stroke-opacity="0.32" stroke-width="1.4"/><rect x="901.12" y="106.7" width="506.88" height="554.84" fill="#e8e2d8"/><path d="M901.12 106.7 V661.54" stroke="#cec5b8" stroke-opacity="0.5" stroke-width="1.4"/><path d="M935.12 106.7 V661.54" stroke="#cec5b8" stroke-opacity="0.5" stroke-width="1.4"/><path d="M969.12 106.7 V661.54" stroke="#cec5b8" stroke-opacity="0.5" stroke-width="1.4"/><path d="M1003.12 106.7 V661.54" stroke="#cec5b8" stroke-opacity="0.5" stroke-width="1.4"/><path d="M1037.12 106.7 V661.54" stroke="#cec5b8" stroke-opacity="0.5" stroke-width="1.4"/><path d="M1071.12 106.7 V661.54" stroke="#cec5b8" stroke-opacity="0.5" stroke-width="1.4"/><path d="M1105.12 106.7 V661.54" stroke="#cec5b8" stroke-opacity="0.5" stroke-width="1.4"/><path d="M1139.12 106.7 V661.54" stroke="#cec5b8" stroke-opacity="0.5" stroke-width="1.4"/><path d="M1173.12 106.7 V661.54" stroke="#cec5b8" stroke-opacity="0.5" stroke-width="1.4"/><path d="M1207.12 106.7 V661.54" stroke="#cec5b8" stroke-opacity="0.5" stroke-width="1.4"/><path d="M1241.12 106.7 V661.54" stroke="#cec5b8" stroke-opacity="0.5" stroke-width="1.4"/><path d="M1275.12 106.7 V661.54" stroke="#cec5b8" stroke-opacity="0.5" stroke-width="1.4"/><path d="M1309.12 106.7 V661.54" stroke="#cec5b8" stroke-opacity="0.5" stroke-width="1.4"/><path d="M1343.12 106.7 V661.54" stroke="#cec5b8" stroke-opacity="0.5" stroke-width="1.4"/><path d="M1377.12 106.7 V661.54" stroke="#cec5b8" stroke-opacity="0.5" stroke-width="1.4"/><path d="M901.12 106.7 H1408" stroke="#cec5b8" stroke-opacity="0.5" stroke-width="1.4"/><path d="M901.12 140.7 H1408" stroke="#cec5b8" stroke-opacity="0.5" stroke-width="1.4"/><path d="M901.12 174.7 H1408" stroke="#cec5b8" stroke-opacity="0.5" stroke-width="1.4"/><path d="M901.12 208.7 H1408" stroke="#cec5b8" stroke-opacity="0.5" stroke-width="1.4"/><path d="M901.12 242.7 H1408" stroke="#cec5b8" stroke-opacity="0.5" stroke-width="1.4"/><path d="M901.12 276.7 H1408" stroke="#cec5b8" stroke-opacity="0.5" stroke-width="1.4"/><path d="M901.12 310.7 H1408" stroke="#cec5b8" stroke-opacity="0.5" stroke-width="1.4"/><path d="M901.12 344.7 H1408" stroke="#cec5b8" stroke-opacity="0.5" stroke-width="1.4"/><path d="M901.12 378.7 H1408" stroke="#cec5b8" stroke-opacity="0.5" stroke-width="1.4"/><path d="M901.12 412.7 H1408" stroke="#cec5b8" stroke-opacity="0.5" stroke-width="1.4"/><path d="M901.12 446.7 H1408" stroke="#cec5b8" stroke-opacity="0.5" stroke-width="1.4"/><path d="M901.12 480.7 H1408" stroke="#cec5b8" stroke-opacity="0.5" stroke-width="1.4"/><path d="M901.12 514.7 H1408" stroke="#cec5b8" stroke-opacity="0.5" stroke-width="1.4"/><path d="M901.12 548.7 H1408" stroke="#cec5b8" stroke-opacity="0.5" stroke-width="1.4"/><path d="M901.12 582.7 H1408" stroke="#cec5b8" stroke-opacity="0.5" stroke-width="1.4"/><path d="M901.12 616.7 H1408" stroke="#cec5b8" stroke-opacity="0.5" stroke-width="1.4"/><path d="M901.12 650.7 H1408" stroke="#cec5b8" stroke-opacity="0.5" stroke-width="1.4"/><rect x="901.12" y="106.7" width="506.88" height="554.84" fill="url(#g-glass-bathroomafter87276)" opacity="0.24"/><rect x="901.12" y="106.7" width="506.88" height="554.84" fill="none" stroke="#d8a877" stroke-width="6"/><path d="M1154.56 106.7 V661.54" stroke="#d8a877" stroke-width="4"/><circle cx="1027.84" cy="217.67" r="13" fill="#d8a877"/><rect x="302.08" y="472.89" width="506.88" height="188.65" fill="#2b2f31"/><rect x="307.08" y="477.89" width="243.44" height="178.65" fill="none" stroke="#3a3f42" stroke-width="2"/><rect x="426.8" y="503.08" width="4" height="45.27" rx="2" fill="#d8a877"/><rect x="560.52" y="477.89" width="243.44" height="178.65" fill="none" stroke="#3a3f42" stroke-width="2"/><rect x="680.24" y="503.08" width="4" height="45.27" rx="2" fill="#d8a877"/><rect x="294.08" y="458.89" width="522.88" height="16" rx="2" fill="url(#g-counter-bathroomafter87276)"/><ellipse cx="555.52" cy="466.89" rx="101.38" ry="9" fill="#f2efec"/><path d="M555.52 452.89 v-28 q0 -14 20 -14" stroke="#d8a877" stroke-width="6" fill="none" stroke-linecap="round"/><rect x="373.04" y="146.7" width="364.95" height="188.65" rx="182.48" fill="url(#g-glass-bathroomafter87276)" stroke="#d8a877" stroke-width="5"/><circle cx="555.52" cy="132.7" r="52" fill="#fff6e6" opacity="0.5" filter="url(#f-soft-bathroomafter87276)"/></g>
  <rect width="1600" height="1067" filter="url(#f-grain-bathroomafter87276)" opacity="0.55" style="mix-blend-mode:multiply"/>
  <rect width="1600" height="1067" fill="url(#g-vig-bathroomafter87276)"/>
</svg>
